<?xml version="1.0" encoding="UTF-8" standalone="no"?>
<svg
   xmlns:dc="http://purl.org/dc/elements/1.1/"
   xmlns:cc="http://creativecommons.org/ns#"
   xmlns:rdf="http://www.w3.org/1999/02/22-rdf-syntax-ns#"
   xmlns:svg="http://www.w3.org/2000/svg"
   xmlns="http://www.w3.org/2000/svg"
   xmlns:sodipodi="http://sodipodi.sourceforge.net/DTD/sodipodi-0.dtd"
   xmlns:inkscape="http://www.inkscape.org/namespaces/inkscape"
   id="Flat"
   height="50"
   viewBox="0 0 50 50"
   width="50"
   version="1.1"
   sodipodi:docname="cart.svg"
   inkscape:version="1.0.1 (3bc2e813f5, 2020-09-07)">
  <metadata
     id="metadata49">
    <rdf:RDF>
      <cc:Work
         rdf:about="">
        <dc:format>image/svg+xml</dc:format>
        <dc:type
           rdf:resource="http://purl.org/dc/dcmitype/StillImage" />
        <dc:title />
      </cc:Work>
    </rdf:RDF>
  </metadata>
  <defs
     id="defs47" />
  <sodipodi:namedview
     pagecolor="#ffffff"
     bordercolor="#666666"
     borderopacity="1"
     objecttolerance="10"
     gridtolerance="10"
     guidetolerance="10"
     inkscape:pageopacity="0"
     inkscape:pageshadow="2"
     inkscape:window-width="1366"
     inkscape:window-height="705"
     id="namedview45"
     showgrid="false"
     showborder="true"
     inkscape:zoom="2.6870058"
     inkscape:cx="122.14728"
     inkscape:cy="68.311671"
     inkscape:window-x="-8"
     inkscape:window-y="-8"
     inkscape:window-maximized="1"
     inkscape:current-layer="Flat"
     inkscape:document-rotation="0" />
  <path
     d="M 27.075831,6.4841062 24.938718,16.017366 H 8.6966285 L 6.5594968,6.4841062 Z"
     fill="#ea9f26"
     id="path2"
     style="stroke-width:0.051508" />
  <path
     d="m 21.519343,8.8674207 -6.411358,4.7666363 v 2.383309 h 6.838759 l 0.854869,-7.1499453 z"
     fill="#2d85cc"
     id="path4"
     style="stroke-width:0.051508" />
  <path
     d="m 24.938718,16.017366 h -4.701645 l 0.245296,-2.734856 1.891875,0.351547 z"
     fill="#eb423f"
     id="path6"
     style="stroke-width:0.051508" />
  <path
     d="M 25.793562,6.4841062 H 21.519343 L 22.801613,4.1008 h 1.709671 z"
     fill="#ffd33a"
     id="path8"
     style="stroke-width:0.051508" />
  <path
     d="M 27.075831,6.4841062 26.007289,11.250738 H 25.793562 V 6.4841062 Z"
     fill="none"
     id="path10"
     style="stroke-width:0.051508" />
  <path
     d="M 25.793562,6.4841062 V 11.250738 H 22.801613 V 8.8674207 h -1.28227 V 6.4841062 Z"
     fill="#ffd33a"
     id="path12"
     style="stroke-width:0.051508" />
  <path
     d="M 25.793562,11.250738 V 10.853537 L 22.801613,8.8674207 22.374176,11.250738 h -1.709702 l -0.427401,4.766628 h 4.701645 l 1.068571,-4.766628 z"
     fill="#248256"
     id="path14"
     style="stroke-width:0.051508" />
  <path
     d="m 23.229013,2.5119217 h 0.854869 a 0.8548467,0.79443787 0 0 1 0.854836,0.7944388 V 4.1008 H 22.374176 V 3.3063605 a 0.8548467,0.79443787 0 0 1 0.854837,-0.7944388 z"
     fill="#ea9f26"
     id="path16"
     style="stroke-width:0.051508" />
  <path
     d="m 12.970848,13.634057 v 2.383309 H 8.6966285 L 8.1623504,13.634057 Z"
     fill="#996046"
     id="path18"
     style="stroke-width:0.051508" />
  <path
     d="M 14.680553,5.2924589 V 8.8674207 H 6.9869368 L 6.183212,4.9365981 l 0.0292,-0.041366 a 1.4086818,1.3091343 0 0 1 1.1772851,-0.5841615 1.4325095,1.3312792 0 0 1 0.2816142,0.025878 c 0,-0.00863 -4.715e-4,-0.017173 -4.715e-4,-0.025878 0,-0.9936405 0.8802728,-1.7991516 1.966145,-1.7991516 a 1.965082,1.8262122 0 0 1 1.8513302,1.1927501 1.4084676,1.3089359 0 0 1 2.642697,0.6064015 1.363642,1.2672775 0 0 1 -0.307746,0.8024365 1.4271655,1.3263131 0 0 1 0.307746,-0.031328 z"
     fill="#35a872"
     id="path20"
     style="stroke-width:0.051508" />
  <path
     d="m 13.825715,0.92304639 h 6.838759 V 6.4841062 h -6.838759 z"
     fill="#c48669"
     id="path22"
     style="stroke-width:0.051508" />
  <path
     d="m 13.825715,0.92304639 h 5.129088 V 6.4841062 h -5.129088 z"
     fill="#d49073"
     id="path24"
     style="stroke-width:0.051508" />
  <path
     d="M 17.245092,2.9091444 H 15.53539 a 0.42742469,0.39722008 0 0 1 0,-0.7944401 h 1.709702 a 0.42742469,0.39722008 0 0 1 0,0.7944401 z"
     fill="#996046"
     id="path26"
     style="stroke-width:0.051508" />
  <path
     d="m 14.680553,8.8674207 h -2.137115 l 0.42741,2.3833173 H 10.833746 L 8.6966285,13.634057 H 8.1623504 L 6.5594968,6.4841062 h 8.1210562 z"
     fill="#248256"
     id="path28"
     style="stroke-width:0.051508" />
  <path
     d="M 25.793562,19.592364 H 8.6966285 A 1.7116172,1.5906633 0 0 1 6.9869368,18.003455 v -0.794434 a 1.7116172,1.5906633 0 0 1 1.7096917,-1.588874 h 0.4274084 a 0.42743147,0.39722628 0 0 1 0,0.794446 H 8.6966285 a 0.85586237,0.79538141 0 0 0 -0.8548611,0.794428 v 0.794434 a 0.85586237,0.79538141 0 0 0 0.8548611,0.794442 H 25.793562 a 0.42743879,0.3972335 0 0 1 0,0.794467 z"
     fill="#d0d2d4"
     id="path30"
     style="stroke-width:0.051508" />
  <ellipse
     cx="10.406272"
     cy="20.386808"
     fill="#7e8589"
     id="circle32"
     rx="1.7096931"
     ry="1.588877"
     style="stroke-width:0.051508" />
  <ellipse
     cx="22.374176"
     cy="20.386808"
     fill="#7e8589"
     id="circle34"
     rx="1.7096931"
     ry="1.588877"
     style="stroke-width:0.051508" />
  <ellipse
     cx="10.406272"
     cy="20.386808"
     fill="#414649"
     id="circle36"
     rx="0.42742327"
     ry="0.39721891"
     style="stroke-width:0.051508" />
  <ellipse
     cx="22.374176"
     cy="20.386808"
     fill="#414649"
     id="circle38"
     rx="0.42742327"
     ry="0.39721891"
     style="stroke-width:0.051508" />
  <path
     d="M 16.817664,11.250738 15.962821,8.8674207 H 14.680553 V 6.4841062 h 6.83879 v 2.3833145 l -2.991978,2.3833173 z"
     fill="#eb423f"
     id="path40"
     style="stroke-width:0.051508" />
  <path
     d="M 27.407461,6.2335195 A 0.42742336,0.39721884 0 0 0 27.075831,6.0868936 H 6.6214459 L 5.6932946,2.4209095 A 0.42742336,0.39721884 0 0 0 5.2772246,2.1147043 H 2.2852801 a 0.42742469,0.39722008 0 0 0 0,0.7944401 H 4.9387125 L 8.2805847,16.10834 a 0.42742336,0.39721884 0 0 0 0.4160438,0.306253 H 24.938718 a 0.42742336,0.39721884 0 0 0 0.418459,-0.316187 L 27.49432,6.5651374 A 0.42742336,0.39721884 0 0 0 27.40721,6.2335195 Z m -8.042724,0.6478129 h 3.38005 l -0.21367,1.5888804 h -3.237729 z m -5.094202,0 0.07139,1.5888804 H 11.104169 L 10.890482,6.8813324 Z m -7.4478335,0 h 3.2063535 l 0.213684,1.5888804 H 7.224884 Z m 0.6034032,2.3833104 h 2.9235163 l 0.213685,1.5888942 H 7.8282986 Z m 0.6034195,2.3833112 h 2.6406728 l 0.213678,1.588876 H 8.4315453 Z m 1.0057154,3.972193 -0.4022945,-1.588872 h 2.3578119 l 0.213709,1.588872 z M 11.211168,9.2646428 h 3.166331 l 0.07131,1.5888942 h -3.02401 z m 0.320567,2.3833112 h 2.952639 l 0.07128,1.588876 h -2.810331 z m 0.534275,3.972193 -0.213727,-1.588872 h 2.738977 l 0.07135,1.588872 z m 6.051471,0 h -2.599555 l -0.07126,-1.588872 h 2.741874 z m 0.106873,-2.383317 h -2.813243 l -0.07138,-1.588876 H 18.2953 Z m 0.106919,-2.383293 H 15.304247 L 15.23287,9.2646428 h 3.169297 z m 0.106873,-2.3833242 h -3.240667 l -0.07138,-1.5888804 h 3.382971 z m 3.13155,7.1499342 h -2.596599 l 0.07141,-1.588872 h 2.738958 z m 0.320567,-2.383317 h -2.810312 l 0.07141,-1.588876 h 2.952673 z m 0.320597,-2.383293 h -3.024007 l 0.0714,-1.5888942 h 3.166376 z m 2.380803,4.76661 h -2.160595 l 0.213711,-1.588872 h 2.302735 z m 0.534283,-2.383317 h -2.374314 l 0.213673,-1.588876 h 2.516438 z m 0.534281,-2.383293 h -2.587978 l 0.213708,-1.5888942 h 2.730133 z m 0.534259,-2.3833242 h -2.801674 l 0.213706,-1.5888804 h 2.943868 z"
     fill="#d0d2d4"
     id="path42"
     style="stroke-width:0.051508" />
</svg>
